<svg width="23" height="22" viewBox="0 0 23 22" fill="none" xmlns="http://www.w3.org/2000/svg">
<path d="M22.5 4.71423C22.5 3.88069 22.1689 3.08129 21.5795 2.49189C20.9901 1.90248 20.1907 1.57136 19.3571 1.57136H18.5714V0.807743C18.5714 0.38493 18.2463 0.0220266 17.8235 0.000910439C17.7173 -0.00420811 17.6111 0.0122955 17.5115 0.0494215C17.4118 0.0865474 17.3207 0.143523 17.2437 0.216895C17.1667 0.290267 17.1054 0.378508 17.0635 0.476272C17.0216 0.574035 17 0.679286 17 0.785645V1.57136H6V0.807743C6 0.38493 5.67491 0.0220266 5.2521 0.000910439C5.14586 -0.00420811 5.03969 0.0122955 4.94002 0.0494215C4.84035 0.0865474 4.74926 0.143523 4.67226 0.216895C4.59526 0.290267 4.53396 0.378508 4.49207 0.476272C4.45018 0.574035 4.42858 0.679286 4.42857 0.785645V1.57136H3.64286C2.80932 1.57136 2.00992 1.90248 1.42052 2.49189C0.831122 3.08129 0.5 3.88069 0.5 4.71423V5.30352C0.5 5.35561 0.520695 5.40558 0.557533 5.44241C0.59437 5.47925 0.644332 5.49995 0.696429 5.49995H22.3036C22.3557 5.49995 22.4056 5.47925 22.4425 5.44241C22.4793 5.40558 22.5 5.35561 22.5 5.30352V4.71423ZM0.5 18.8571C0.5 19.6907 0.831122 20.4901 1.42052 21.0795C2.00992 21.6689 2.80932 22 3.64286 22H19.3571C20.1907 22 20.9901 21.6689 21.5795 21.0795C22.1689 20.4901 22.5 19.6907 22.5 18.8571V7.2187C22.5 7.17963 22.4845 7.14216 22.4569 7.11453C22.4292 7.0869 22.3918 7.07138 22.3527 7.07138H0.647321C0.608249 7.07138 0.570778 7.0869 0.54315 7.11453C0.515521 7.14216 0.5 7.17963 0.5 7.2187V18.8571ZM17.3929 8.64281C17.626 8.64281 17.8538 8.71194 18.0476 8.84144C18.2415 8.97094 18.3925 9.15501 18.4817 9.37037C18.5709 9.58572 18.5943 9.8227 18.5488 10.0513C18.5033 10.2799 18.3911 10.4899 18.2262 10.6548C18.0614 10.8196 17.8514 10.9318 17.6228 10.9773C17.3942 11.0228 17.1572 10.9995 16.9418 10.9102C16.7265 10.821 16.5424 10.67 16.4129 10.4762C16.2834 10.2824 16.2143 10.0545 16.2143 9.82139C16.2143 9.50881 16.3385 9.20904 16.5595 8.98801C16.7805 8.76698 17.0803 8.64281 17.3929 8.64281ZM17.3929 12.5714C17.626 12.5714 17.8538 12.6405 18.0476 12.77C18.2415 12.8995 18.3925 13.0836 18.4817 13.299C18.5709 13.5143 18.5943 13.7513 18.5488 13.9799C18.5033 14.2085 18.3911 14.4185 18.2262 14.5834C18.0614 14.7482 17.8514 14.8604 17.6228 14.9059C17.3942 14.9514 17.1572 14.928 16.9418 14.8388C16.7265 14.7496 16.5424 14.5986 16.4129 14.4048C16.2834 14.2109 16.2143 13.9831 16.2143 13.75C16.2143 13.4374 16.3385 13.1376 16.5595 12.9166C16.7805 12.6956 17.0803 12.5714 17.3929 12.5714ZM13.4643 8.64281C13.6974 8.64281 13.9252 8.71194 14.1191 8.84144C14.3129 8.97094 14.4639 9.15501 14.5531 9.37037C14.6423 9.58572 14.6657 9.8227 14.6202 10.0513C14.5747 10.2799 14.4625 10.4899 14.2977 10.6548C14.1328 10.8196 13.9228 10.9318 13.6942 10.9773C13.4656 11.0228 13.2286 10.9995 13.0133 10.9102C12.7979 10.821 12.6138 10.67 12.4843 10.4762C12.3548 10.2824 12.2857 10.0545 12.2857 9.82139C12.2857 9.50881 12.4099 9.20904 12.6309 8.98801C12.8519 8.76698 13.1517 8.64281 13.4643 8.64281ZM13.4643 12.5714C13.6974 12.5714 13.9252 12.6405 14.1191 12.77C14.3129 12.8995 14.4639 13.0836 14.5531 13.299C14.6423 13.5143 14.6657 13.7513 14.6202 13.9799C14.5747 14.2085 14.4625 14.4185 14.2977 14.5834C14.1328 14.7482 13.9228 14.8604 13.6942 14.9059C13.4656 14.9514 13.2286 14.928 13.0133 14.8388C12.7979 14.7496 12.6138 14.5986 12.4843 14.4048C12.3548 14.2109 12.2857 13.9831 12.2857 13.75C12.2857 13.4374 12.4099 13.1376 12.6309 12.9166C12.8519 12.6956 13.1517 12.5714 13.4643 12.5714ZM13.4643 16.5C13.6974 16.5 13.9252 16.5691 14.1191 16.6986C14.3129 16.8281 14.4639 17.0122 14.5531 17.2275C14.6423 17.4429 14.6657 17.6799 14.6202 17.9085C14.5747 18.1371 14.4625 18.3471 14.2977 18.5119C14.1328 18.6768 13.9228 18.789 13.6942 18.8345C13.4656 18.88 13.2286 18.8566 13.0133 18.7674C12.7979 18.6782 12.6138 18.5272 12.4843 18.3333C12.3548 18.1395 12.2857 17.9117 12.2857 17.6786C12.2857 17.366 12.4099 17.0662 12.6309 16.8452C12.8519 16.6242 13.1517 16.5 13.4643 16.5ZM9.53571 12.5714C9.76881 12.5714 9.99668 12.6405 10.1905 12.77C10.3843 12.8995 10.5354 13.0836 10.6246 13.299C10.7138 13.5143 10.7371 13.7513 10.6916 13.9799C10.6462 14.2085 10.5339 14.4185 10.3691 14.5834C10.2043 14.7482 9.99426 14.8604 9.76564 14.9059C9.53702 14.9514 9.30005 14.928 9.08469 14.8388C8.86934 14.7496 8.68527 14.5986 8.55577 14.4048C8.42626 14.2109 8.35714 13.9831 8.35714 13.75C8.35714 13.4374 8.48131 13.1376 8.70234 12.9166C8.92336 12.6956 9.22314 12.5714 9.53571 12.5714ZM9.53571 16.5C9.76881 16.5 9.99668 16.5691 10.1905 16.6986C10.3843 16.8281 10.5354 17.0122 10.6246 17.2275C10.7138 17.4429 10.7371 17.6799 10.6916 17.9085C10.6462 18.1371 10.5339 18.3471 10.3691 18.5119C10.2043 18.6768 9.99426 18.789 9.76564 18.8345C9.53702 18.88 9.30005 18.8566 9.08469 18.7674C8.86934 18.6782 8.68527 18.5272 8.55577 18.3333C8.42626 18.1395 8.35714 17.9117 8.35714 17.6786C8.35714 17.366 8.48131 17.0662 8.70234 16.8452C8.92336 16.6242 9.22314 16.5 9.53571 16.5ZM5.60714 12.5714C5.84024 12.5714 6.06811 12.6405 6.26192 12.77C6.45574 12.8995 6.6068 13.0836 6.696 13.299C6.7852 13.5143 6.80854 13.7513 6.76307 13.9799C6.71759 14.2085 6.60534 14.4185 6.44052 14.5834C6.27569 14.7482 6.06569 14.8604 5.83707 14.9059C5.60845 14.9514 5.37148 14.928 5.15612 14.8388C4.94077 14.7496 4.7567 14.5986 4.6272 14.4048C4.49769 14.2109 4.42857 13.9831 4.42857 13.75C4.42857 13.4374 4.55274 13.1376 4.77377 12.9166C4.99479 12.6956 5.29457 12.5714 5.60714 12.5714ZM5.60714 16.5C5.84024 16.5 6.06811 16.5691 6.26192 16.6986C6.45574 16.8281 6.6068 17.0122 6.696 17.2275C6.7852 17.4429 6.80854 17.6799 6.76307 17.9085C6.71759 18.1371 6.60534 18.3471 6.44052 18.5119C6.27569 18.6768 6.06569 18.789 5.83707 18.8345C5.60845 18.88 5.37148 18.8566 5.15612 18.7674C4.94077 18.6782 4.7567 18.5272 4.6272 18.3333C4.49769 18.1395 4.42857 17.9117 4.42857 17.6786C4.42857 17.366 4.55274 17.0662 4.77377 16.8452C4.99479 16.6242 5.29457 16.5 5.60714 16.5Z" fill="#75ABAB"/>
</svg>
