<svg width="30" height="30" viewBox="0 0 30 30" fill="none" xmlns="http://www.w3.org/2000/svg">
<path fill-rule="evenodd" clip-rule="evenodd" d="M3.53515 0.956613C3.86321 0.629014 4.25715 0.374883 4.69086 0.21106C5.12456 0.0472372 5.58812 -0.0225367 6.05083 0.00636257C6.51354 0.0352618 6.96482 0.162174 7.37477 0.378689C7.78472 0.595204 8.14398 0.896378 8.42874 1.26225L11.7943 5.5862C12.4111 6.37936 12.6286 7.41253 12.3849 8.38758L11.3593 12.494C11.3066 12.7067 11.3097 12.9294 11.3681 13.1406C11.4266 13.3518 11.5385 13.5443 11.693 13.6997L16.2997 18.3068C16.4553 18.4616 16.6481 18.5737 16.8597 18.6322C17.0712 18.6907 17.2942 18.6936 17.5072 18.6406L21.6115 17.6149C22.0926 17.4953 22.5947 17.4863 23.0798 17.5886C23.565 17.6909 24.0207 17.9018 24.4126 18.2055L28.7362 21.5694C30.2906 22.7789 30.4331 25.0758 29.0418 26.4653L27.1032 28.4041C25.7157 29.7917 23.642 30.4011 21.709 29.7204C16.7604 27.9814 12.2678 25.1485 8.56561 21.4326C4.85018 17.7307 2.01748 13.2384 0.278374 8.29007C-0.400354 6.35874 0.209001 4.28302 1.59646 2.89545L3.53515 0.956613Z" fill="url(#paint0_linear_666_225)"/>
<defs>
<linearGradient id="paint0_linear_666_225" x1="7.8" y1="3" x2="15" y2="26" gradientUnits="userSpaceOnUse">
<stop stop-color="#E0AB06"/>
<stop offset="1" stop-color="#CF7D08"/>
</linearGradient>
</defs>
</svg>
