<svg width="30" height="30" viewBox="0 0 30 30" fill="none" xmlns="http://www.w3.org/2000/svg">
<g clip-path="url(#clip0_666_218)">
<path d="M15 30C23.2843 30 30 23.2843 30 15C30 6.71575 23.2843 0 15 0C6.71575 0 0 6.71575 0 15C0 23.2843 6.71575 30 15 30Z" fill="url(#paint0_linear_666_218)"/>
<path d="M5.58603 15.7338C7.33951 14.7679 9.29689 13.9618 11.1258 13.1515C14.2721 11.8244 17.431 10.5203 20.6218 9.30617C21.2426 9.09929 22.358 8.89698 22.4674 9.81698C22.4075 11.1192 22.1611 12.4139 21.9921 13.7085C21.5632 16.5555 21.0675 19.3927 20.584 22.2304C20.4175 23.1755 19.2334 23.6649 18.4758 23.06C16.655 21.8301 14.8203 20.6122 13.0228 19.3539C12.434 18.7555 12.98 17.8964 13.5058 17.4691C15.0055 15.9912 16.5958 14.7356 18.0171 13.1814C18.4005 12.2555 17.2677 13.0358 16.8941 13.2749C14.8411 14.6896 12.8383 16.1907 10.6738 17.4341C9.5682 18.0427 8.27958 17.5226 7.17445 17.183C6.18356 16.7727 4.73165 16.3594 5.58603 15.7338Z" fill="white"/>
</g>
<defs>
<linearGradient id="paint0_linear_666_218" x1="7.8" y1="3" x2="14.4" y2="25.8" gradientUnits="userSpaceOnUse">
<stop stop-color="#41C4FD"/>
<stop offset="1" stop-color="#2F95C1"/>
</linearGradient>
<clipPath id="clip0_666_218">
<rect width="30" height="30" fill="white"/>
</clipPath>
</defs>
</svg>
